<mxfile host="app.diagrams.net" agent="Mozilla/5.0 (Windows NT 10.0; Win64; x64) AppleWebKit/537.36 (KHTML, like Gecko) Chrome/131.0.0.0 Safari/537.36 OPR/116.0.0.0" version="26.0.7">
  <diagram id="C5RBs43oDa-KdzZeNtuy" name="Page-1">
    <mxGraphModel dx="1048" dy="618" grid="1" gridSize="10" guides="1" tooltips="1" connect="1" arrows="1" fold="1" page="1" pageScale="1" pageWidth="827" pageHeight="1169" math="0" shadow="0">
      <root>
        <mxCell id="WIyWlLk6GJQsqaUBKTNV-0" />
        <mxCell id="WIyWlLk6GJQsqaUBKTNV-1" parent="WIyWlLk6GJQsqaUBKTNV-0" />
        <mxCell id="Xpce410ReCgsMayBrVwK-5" style="edgeStyle=orthogonalEdgeStyle;rounded=0;orthogonalLoop=1;jettySize=auto;html=1;exitX=0;exitY=0.5;exitDx=0;exitDy=0;entryX=0.5;entryY=0;entryDx=0;entryDy=0;" edge="1" parent="WIyWlLk6GJQsqaUBKTNV-1" source="Xpce410ReCgsMayBrVwK-1" target="Xpce410ReCgsMayBrVwK-4">
          <mxGeometry relative="1" as="geometry" />
        </mxCell>
        <mxCell id="Xpce410ReCgsMayBrVwK-21" value="" style="edgeStyle=orthogonalEdgeStyle;rounded=0;orthogonalLoop=1;jettySize=auto;html=1;" edge="1" parent="WIyWlLk6GJQsqaUBKTNV-1" source="Xpce410ReCgsMayBrVwK-1" target="Xpce410ReCgsMayBrVwK-18">
          <mxGeometry relative="1" as="geometry" />
        </mxCell>
        <mxCell id="Xpce410ReCgsMayBrVwK-39" style="edgeStyle=orthogonalEdgeStyle;rounded=0;orthogonalLoop=1;jettySize=auto;html=1;exitX=1;exitY=0.5;exitDx=0;exitDy=0;entryX=0.5;entryY=0;entryDx=0;entryDy=0;" edge="1" parent="WIyWlLk6GJQsqaUBKTNV-1" source="Xpce410ReCgsMayBrVwK-1" target="Xpce410ReCgsMayBrVwK-26">
          <mxGeometry relative="1" as="geometry" />
        </mxCell>
        <mxCell id="Xpce410ReCgsMayBrVwK-1" value="The Physics Lab" style="rounded=0;whiteSpace=wrap;html=1;" vertex="1" parent="WIyWlLk6GJQsqaUBKTNV-1">
          <mxGeometry x="320" y="10" width="106" height="50" as="geometry" />
        </mxCell>
        <mxCell id="Xpce410ReCgsMayBrVwK-10" value="" style="edgeStyle=orthogonalEdgeStyle;rounded=0;orthogonalLoop=1;jettySize=auto;html=1;" edge="1" parent="WIyWlLk6GJQsqaUBKTNV-1" source="Xpce410ReCgsMayBrVwK-4" target="Xpce410ReCgsMayBrVwK-7">
          <mxGeometry relative="1" as="geometry" />
        </mxCell>
        <mxCell id="Xpce410ReCgsMayBrVwK-4" value="Login system" style="rounded=1;whiteSpace=wrap;html=1;fillColor=#d5e8d4;strokeColor=#82b366;" vertex="1" parent="WIyWlLk6GJQsqaUBKTNV-1">
          <mxGeometry x="40" y="60" width="100" height="50" as="geometry" />
        </mxCell>
        <mxCell id="Xpce410ReCgsMayBrVwK-15" value="" style="edgeStyle=orthogonalEdgeStyle;rounded=0;orthogonalLoop=1;jettySize=auto;html=1;" edge="1" parent="WIyWlLk6GJQsqaUBKTNV-1" source="Xpce410ReCgsMayBrVwK-7" target="Xpce410ReCgsMayBrVwK-14">
          <mxGeometry relative="1" as="geometry" />
        </mxCell>
        <mxCell id="Xpce410ReCgsMayBrVwK-7" value="Login window" style="rounded=0;whiteSpace=wrap;html=1;" vertex="1" parent="WIyWlLk6GJQsqaUBKTNV-1">
          <mxGeometry x="37" y="134" width="106" height="50" as="geometry" />
        </mxCell>
        <mxCell id="Xpce410ReCgsMayBrVwK-11" value="View submissions" style="rounded=0;whiteSpace=wrap;html=1;" vertex="1" parent="WIyWlLk6GJQsqaUBKTNV-1">
          <mxGeometry x="480" y="336" width="106" height="50" as="geometry" />
        </mxCell>
        <mxCell id="Xpce410ReCgsMayBrVwK-12" value="View assignments" style="rounded=0;whiteSpace=wrap;html=1;" vertex="1" parent="WIyWlLk6GJQsqaUBKTNV-1">
          <mxGeometry x="360.5" y="336" width="106" height="50" as="geometry" />
        </mxCell>
        <mxCell id="Xpce410ReCgsMayBrVwK-13" value="Create assignment" style="rounded=0;whiteSpace=wrap;html=1;" vertex="1" parent="WIyWlLk6GJQsqaUBKTNV-1">
          <mxGeometry x="240" y="336" width="106" height="50" as="geometry" />
        </mxCell>
        <mxCell id="Xpce410ReCgsMayBrVwK-20" value="" style="edgeStyle=orthogonalEdgeStyle;rounded=0;orthogonalLoop=1;jettySize=auto;html=1;" edge="1" parent="WIyWlLk6GJQsqaUBKTNV-1" source="Xpce410ReCgsMayBrVwK-14" target="Xpce410ReCgsMayBrVwK-19">
          <mxGeometry relative="1" as="geometry" />
        </mxCell>
        <mxCell id="Xpce410ReCgsMayBrVwK-14" value="2FA window" style="rounded=0;whiteSpace=wrap;html=1;" vertex="1" parent="WIyWlLk6GJQsqaUBKTNV-1">
          <mxGeometry x="37" y="205" width="106" height="50" as="geometry" />
        </mxCell>
        <mxCell id="Xpce410ReCgsMayBrVwK-40" style="edgeStyle=orthogonalEdgeStyle;rounded=0;orthogonalLoop=1;jettySize=auto;html=1;exitX=1;exitY=0.5;exitDx=0;exitDy=0;entryX=0;entryY=0.5;entryDx=0;entryDy=0;" edge="1" parent="WIyWlLk6GJQsqaUBKTNV-1" source="Xpce410ReCgsMayBrVwK-18" target="Xpce410ReCgsMayBrVwK-25">
          <mxGeometry relative="1" as="geometry" />
        </mxCell>
        <mxCell id="Xpce410ReCgsMayBrVwK-58" style="edgeStyle=orthogonalEdgeStyle;rounded=0;orthogonalLoop=1;jettySize=auto;html=1;exitX=0;exitY=0.5;exitDx=0;exitDy=0;entryX=0.5;entryY=0;entryDx=0;entryDy=0;" edge="1" parent="WIyWlLk6GJQsqaUBKTNV-1" source="Xpce410ReCgsMayBrVwK-18" target="Xpce410ReCgsMayBrVwK-46">
          <mxGeometry relative="1" as="geometry" />
        </mxCell>
        <mxCell id="Xpce410ReCgsMayBrVwK-62" style="edgeStyle=orthogonalEdgeStyle;rounded=0;orthogonalLoop=1;jettySize=auto;html=1;exitX=0;exitY=0.5;exitDx=0;exitDy=0;entryX=0;entryY=0.5;entryDx=0;entryDy=0;" edge="1" parent="WIyWlLk6GJQsqaUBKTNV-1" source="Xpce410ReCgsMayBrVwK-18" target="Xpce410ReCgsMayBrVwK-27">
          <mxGeometry relative="1" as="geometry" />
        </mxCell>
        <mxCell id="Xpce410ReCgsMayBrVwK-63" style="edgeStyle=orthogonalEdgeStyle;rounded=0;orthogonalLoop=1;jettySize=auto;html=1;exitX=0.5;exitY=1;exitDx=0;exitDy=0;entryX=0;entryY=0.5;entryDx=0;entryDy=0;" edge="1" parent="WIyWlLk6GJQsqaUBKTNV-1" source="Xpce410ReCgsMayBrVwK-18" target="Xpce410ReCgsMayBrVwK-45">
          <mxGeometry relative="1" as="geometry" />
        </mxCell>
        <mxCell id="Xpce410ReCgsMayBrVwK-18" value="Admin view" style="rounded=1;whiteSpace=wrap;html=1;fillColor=#d5e8d4;strokeColor=#82b366;" vertex="1" parent="WIyWlLk6GJQsqaUBKTNV-1">
          <mxGeometry x="271" y="90" width="100" height="50" as="geometry" />
        </mxCell>
        <mxCell id="Xpce410ReCgsMayBrVwK-19" value="Sign in" style="rounded=1;whiteSpace=wrap;html=1;fillColor=#d5e8d4;strokeColor=#82b366;" vertex="1" parent="WIyWlLk6GJQsqaUBKTNV-1">
          <mxGeometry x="40" y="276" width="100" height="50" as="geometry" />
        </mxCell>
        <mxCell id="Xpce410ReCgsMayBrVwK-43" style="edgeStyle=orthogonalEdgeStyle;rounded=0;orthogonalLoop=1;jettySize=auto;html=1;exitX=0.5;exitY=1;exitDx=0;exitDy=0;entryX=0.5;entryY=0;entryDx=0;entryDy=0;" edge="1" parent="WIyWlLk6GJQsqaUBKTNV-1" source="Xpce410ReCgsMayBrVwK-25" target="Xpce410ReCgsMayBrVwK-35">
          <mxGeometry relative="1" as="geometry" />
        </mxCell>
        <mxCell id="Xpce410ReCgsMayBrVwK-44" style="edgeStyle=orthogonalEdgeStyle;rounded=0;orthogonalLoop=1;jettySize=auto;html=1;exitX=0.5;exitY=1;exitDx=0;exitDy=0;entryX=0.5;entryY=0;entryDx=0;entryDy=0;" edge="1" parent="WIyWlLk6GJQsqaUBKTNV-1" source="Xpce410ReCgsMayBrVwK-25" target="Xpce410ReCgsMayBrVwK-34">
          <mxGeometry relative="1" as="geometry" />
        </mxCell>
        <mxCell id="Xpce410ReCgsMayBrVwK-25" value="Settings" style="rounded=1;whiteSpace=wrap;html=1;fillColor=#d5e8d4;strokeColor=#82b366;" vertex="1" parent="WIyWlLk6GJQsqaUBKTNV-1">
          <mxGeometry x="556" y="70" width="100" height="55" as="geometry" />
        </mxCell>
        <mxCell id="Xpce410ReCgsMayBrVwK-41" style="edgeStyle=orthogonalEdgeStyle;rounded=0;orthogonalLoop=1;jettySize=auto;html=1;exitX=0;exitY=0.5;exitDx=0;exitDy=0;entryX=1;entryY=0.5;entryDx=0;entryDy=0;" edge="1" parent="WIyWlLk6GJQsqaUBKTNV-1" source="Xpce410ReCgsMayBrVwK-26" target="Xpce410ReCgsMayBrVwK-25">
          <mxGeometry relative="1" as="geometry" />
        </mxCell>
        <mxCell id="Xpce410ReCgsMayBrVwK-48" style="edgeStyle=orthogonalEdgeStyle;rounded=0;orthogonalLoop=1;jettySize=auto;html=1;exitX=0.5;exitY=1;exitDx=0;exitDy=0;entryX=0.5;entryY=0;entryDx=0;entryDy=0;" edge="1" parent="WIyWlLk6GJQsqaUBKTNV-1" source="Xpce410ReCgsMayBrVwK-26" target="Xpce410ReCgsMayBrVwK-47">
          <mxGeometry relative="1" as="geometry" />
        </mxCell>
        <mxCell id="Xpce410ReCgsMayBrVwK-26" value="Student view" style="rounded=1;whiteSpace=wrap;html=1;fillColor=#d5e8d4;strokeColor=#82b366;" vertex="1" parent="WIyWlLk6GJQsqaUBKTNV-1">
          <mxGeometry x="790" y="72.5" width="100" height="50" as="geometry" />
        </mxCell>
        <mxCell id="Xpce410ReCgsMayBrVwK-29" style="edgeStyle=orthogonalEdgeStyle;rounded=0;orthogonalLoop=1;jettySize=auto;html=1;exitX=0.5;exitY=1;exitDx=0;exitDy=0;" edge="1" parent="WIyWlLk6GJQsqaUBKTNV-1" source="Xpce410ReCgsMayBrVwK-27" target="Xpce410ReCgsMayBrVwK-13">
          <mxGeometry relative="1" as="geometry" />
        </mxCell>
        <mxCell id="Xpce410ReCgsMayBrVwK-30" style="edgeStyle=orthogonalEdgeStyle;rounded=0;orthogonalLoop=1;jettySize=auto;html=1;exitX=0.5;exitY=1;exitDx=0;exitDy=0;entryX=0.5;entryY=0;entryDx=0;entryDy=0;" edge="1" parent="WIyWlLk6GJQsqaUBKTNV-1" source="Xpce410ReCgsMayBrVwK-27" target="Xpce410ReCgsMayBrVwK-12">
          <mxGeometry relative="1" as="geometry" />
        </mxCell>
        <mxCell id="Xpce410ReCgsMayBrVwK-36" style="edgeStyle=orthogonalEdgeStyle;rounded=0;orthogonalLoop=1;jettySize=auto;html=1;exitX=0.5;exitY=1;exitDx=0;exitDy=0;entryX=0.5;entryY=0;entryDx=0;entryDy=0;" edge="1" parent="WIyWlLk6GJQsqaUBKTNV-1" source="Xpce410ReCgsMayBrVwK-27" target="Xpce410ReCgsMayBrVwK-11">
          <mxGeometry relative="1" as="geometry" />
        </mxCell>
        <mxCell id="Xpce410ReCgsMayBrVwK-27" value="Assignment system" style="rounded=1;whiteSpace=wrap;html=1;fillColor=#d5e8d4;strokeColor=#82b366;" vertex="1" parent="WIyWlLk6GJQsqaUBKTNV-1">
          <mxGeometry x="271" y="240" width="100" height="50" as="geometry" />
        </mxCell>
        <mxCell id="Xpce410ReCgsMayBrVwK-31" value="Mark assignment" style="rounded=0;whiteSpace=wrap;html=1;" vertex="1" parent="WIyWlLk6GJQsqaUBKTNV-1">
          <mxGeometry x="870" y="360" width="106" height="50" as="geometry" />
        </mxCell>
        <mxCell id="Xpce410ReCgsMayBrVwK-32" value="Open assignment" style="rounded=0;whiteSpace=wrap;html=1;" vertex="1" parent="WIyWlLk6GJQsqaUBKTNV-1">
          <mxGeometry x="740" y="360" width="106" height="50" as="geometry" />
        </mxCell>
        <mxCell id="Xpce410ReCgsMayBrVwK-33" value="View assignments" style="rounded=0;whiteSpace=wrap;html=1;" vertex="1" parent="WIyWlLk6GJQsqaUBKTNV-1">
          <mxGeometry x="610" y="360" width="106" height="50" as="geometry" />
        </mxCell>
        <mxCell id="Xpce410ReCgsMayBrVwK-34" value="Change password" style="rounded=0;whiteSpace=wrap;html=1;" vertex="1" parent="WIyWlLk6GJQsqaUBKTNV-1">
          <mxGeometry x="670" y="170" width="106" height="50" as="geometry" />
        </mxCell>
        <mxCell id="Xpce410ReCgsMayBrVwK-35" value="Change email" style="rounded=0;whiteSpace=wrap;html=1;" vertex="1" parent="WIyWlLk6GJQsqaUBKTNV-1">
          <mxGeometry x="520" y="160" width="106" height="50" as="geometry" />
        </mxCell>
        <mxCell id="Xpce410ReCgsMayBrVwK-64" style="edgeStyle=orthogonalEdgeStyle;rounded=0;orthogonalLoop=1;jettySize=auto;html=1;exitX=0.5;exitY=1;exitDx=0;exitDy=0;entryX=0.5;entryY=0;entryDx=0;entryDy=0;" edge="1" parent="WIyWlLk6GJQsqaUBKTNV-1" source="Xpce410ReCgsMayBrVwK-45" target="Xpce410ReCgsMayBrVwK-52">
          <mxGeometry relative="1" as="geometry" />
        </mxCell>
        <mxCell id="Xpce410ReCgsMayBrVwK-45" value="Account system" style="rounded=1;whiteSpace=wrap;html=1;fillColor=#d5e8d4;strokeColor=#82b366;" vertex="1" parent="WIyWlLk6GJQsqaUBKTNV-1">
          <mxGeometry x="380" y="160" width="100" height="50" as="geometry" />
        </mxCell>
        <mxCell id="Xpce410ReCgsMayBrVwK-59" style="edgeStyle=orthogonalEdgeStyle;rounded=0;orthogonalLoop=1;jettySize=auto;html=1;exitX=0.5;exitY=1;exitDx=0;exitDy=0;entryX=0.5;entryY=0;entryDx=0;entryDy=0;" edge="1" parent="WIyWlLk6GJQsqaUBKTNV-1" source="Xpce410ReCgsMayBrVwK-46" target="Xpce410ReCgsMayBrVwK-54">
          <mxGeometry relative="1" as="geometry" />
        </mxCell>
        <mxCell id="Xpce410ReCgsMayBrVwK-60" style="edgeStyle=orthogonalEdgeStyle;rounded=0;orthogonalLoop=1;jettySize=auto;html=1;exitX=0.5;exitY=1;exitDx=0;exitDy=0;entryX=0.5;entryY=0;entryDx=0;entryDy=0;" edge="1" parent="WIyWlLk6GJQsqaUBKTNV-1" source="Xpce410ReCgsMayBrVwK-46" target="Xpce410ReCgsMayBrVwK-53">
          <mxGeometry relative="1" as="geometry" />
        </mxCell>
        <mxCell id="Xpce410ReCgsMayBrVwK-46" value="Class system" style="rounded=1;whiteSpace=wrap;html=1;fillColor=#d5e8d4;strokeColor=#82b366;" vertex="1" parent="WIyWlLk6GJQsqaUBKTNV-1">
          <mxGeometry x="110" y="350" width="100" height="50" as="geometry" />
        </mxCell>
        <mxCell id="Xpce410ReCgsMayBrVwK-49" style="edgeStyle=orthogonalEdgeStyle;rounded=0;orthogonalLoop=1;jettySize=auto;html=1;exitX=0.5;exitY=1;exitDx=0;exitDy=0;entryX=0.5;entryY=0;entryDx=0;entryDy=0;" edge="1" parent="WIyWlLk6GJQsqaUBKTNV-1" source="Xpce410ReCgsMayBrVwK-47" target="Xpce410ReCgsMayBrVwK-33">
          <mxGeometry relative="1" as="geometry" />
        </mxCell>
        <mxCell id="Xpce410ReCgsMayBrVwK-51" style="edgeStyle=orthogonalEdgeStyle;rounded=0;orthogonalLoop=1;jettySize=auto;html=1;exitX=0.5;exitY=1;exitDx=0;exitDy=0;" edge="1" parent="WIyWlLk6GJQsqaUBKTNV-1" source="Xpce410ReCgsMayBrVwK-47" target="Xpce410ReCgsMayBrVwK-32">
          <mxGeometry relative="1" as="geometry" />
        </mxCell>
        <mxCell id="Xpce410ReCgsMayBrVwK-56" style="edgeStyle=orthogonalEdgeStyle;rounded=0;orthogonalLoop=1;jettySize=auto;html=1;exitX=0.5;exitY=1;exitDx=0;exitDy=0;entryX=0.5;entryY=0;entryDx=0;entryDy=0;" edge="1" parent="WIyWlLk6GJQsqaUBKTNV-1" source="Xpce410ReCgsMayBrVwK-47" target="Xpce410ReCgsMayBrVwK-31">
          <mxGeometry relative="1" as="geometry" />
        </mxCell>
        <mxCell id="Xpce410ReCgsMayBrVwK-57" style="edgeStyle=orthogonalEdgeStyle;rounded=0;orthogonalLoop=1;jettySize=auto;html=1;exitX=0.5;exitY=1;exitDx=0;exitDy=0;entryX=0.5;entryY=0;entryDx=0;entryDy=0;" edge="1" parent="WIyWlLk6GJQsqaUBKTNV-1" source="Xpce410ReCgsMayBrVwK-47" target="Xpce410ReCgsMayBrVwK-55">
          <mxGeometry relative="1" as="geometry" />
        </mxCell>
        <mxCell id="Xpce410ReCgsMayBrVwK-47" value="Assignment system" style="rounded=1;whiteSpace=wrap;html=1;fillColor=#d5e8d4;strokeColor=#82b366;" vertex="1" parent="WIyWlLk6GJQsqaUBKTNV-1">
          <mxGeometry x="790" y="240" width="100" height="50" as="geometry" />
        </mxCell>
        <mxCell id="Xpce410ReCgsMayBrVwK-52" value="Create student account" style="rounded=0;whiteSpace=wrap;html=1;" vertex="1" parent="WIyWlLk6GJQsqaUBKTNV-1">
          <mxGeometry x="400" y="240" width="106" height="50" as="geometry" />
        </mxCell>
        <mxCell id="Xpce410ReCgsMayBrVwK-53" value="Delete class" style="rounded=0;whiteSpace=wrap;html=1;" vertex="1" parent="WIyWlLk6GJQsqaUBKTNV-1">
          <mxGeometry x="180" y="440" width="106" height="50" as="geometry" />
        </mxCell>
        <mxCell id="Xpce410ReCgsMayBrVwK-54" value="Create class" style="rounded=0;whiteSpace=wrap;html=1;" vertex="1" parent="WIyWlLk6GJQsqaUBKTNV-1">
          <mxGeometry x="50" y="440" width="106" height="50" as="geometry" />
        </mxCell>
        <mxCell id="Xpce410ReCgsMayBrVwK-55" value="View past submissions" style="rounded=0;whiteSpace=wrap;html=1;" vertex="1" parent="WIyWlLk6GJQsqaUBKTNV-1">
          <mxGeometry x="1000" y="360" width="106" height="50" as="geometry" />
        </mxCell>
      </root>
    </mxGraphModel>
  </diagram>
</mxfile>
